<svg width="1200" height="675" viewBox="0 0 1200 675" fill="none" xmlns="http://www.w3.org/2000/svg" role="img" aria-labelledby="title desc">
  <title id="title">CompTIA Security+ SY0-701 Practice preview</title>
  <desc id="desc">A stylized browser preview of the practice quiz interface.</desc>
  <rect width="1200" height="675" fill="#eef3f8"/>
  <rect x="70" y="55" width="1060" height="565" rx="18" fill="#ffffff" stroke="#d9e0e8" stroke-width="2"/>
  <rect x="70" y="55" width="1060" height="74" rx="18" fill="#174c83"/>
  <circle cx="112" cy="92" r="9" fill="#ff6b6b"/>
  <circle cx="144" cy="92" r="9" fill="#ffd166"/>
  <circle cx="176" cy="92" r="9" fill="#56d364"/>
  <text x="220" y="100" fill="#ffffff" font-family="Inter, Arial, sans-serif" font-size="26" font-weight="800">CompTIA Security+ SY0-701 Practice</text>
  <rect x="100" y="160" width="1000" height="80" rx="10" fill="#f8fbff" stroke="#d9e0e8"/>
  <text x="130" y="194" fill="#111827" font-family="Inter, Arial, sans-serif" font-size="22" font-weight="800">Focused practice sets</text>
  <text x="130" y="222" fill="#667085" font-family="Inter, Arial, sans-serif" font-size="16">Work through Security+ questions, track answers, and review misses as you go.</text>
  <rect x="780" y="178" width="135" height="36" rx="8" fill="#eaf2fb" stroke="#2364aa"/>
  <text x="807" y="202" fill="#174c83" font-family="Inter, Arial, sans-serif" font-size="15" font-weight="700">Part 1</text>
  <rect x="930" y="178" width="135" height="36" rx="8" fill="#2364aa"/>
  <text x="957" y="202" fill="#ffffff" font-family="Inter, Arial, sans-serif" font-size="15" font-weight="700">Grade block</text>
  <rect x="100" y="275" width="1000" height="235" rx="14" fill="#ffffff" stroke="#d9e0e8" stroke-width="2"/>
  <rect x="130" y="305" width="120" height="30" rx="15" fill="#eaf2fb"/>
  <text x="150" y="326" fill="#174c83" font-family="Inter, Arial, sans-serif" font-size="14" font-weight="800">Question 1</text>
  <text x="130" y="370" fill="#111827" font-family="Inter, Arial, sans-serif" font-size="24" font-weight="800">Which threat actor is most likely to be hired by a foreign government?</text>
  <rect x="130" y="405" width="455" height="48" rx="9" fill="#fbfdff" stroke="#d9e0e8"/>
  <circle cx="158" cy="429" r="12" fill="#eef3f8"/>
  <text x="154" y="434" fill="#25415f" font-family="Inter, Arial, sans-serif" font-size="14" font-weight="800">A</text>
  <text x="185" y="435" fill="#111827" font-family="Inter, Arial, sans-serif" font-size="16">Hacktivist</text>
  <rect x="615" y="405" width="455" height="48" rx="9" fill="#e9f8f1" stroke="#087443"/>
  <circle cx="643" cy="429" r="12" fill="#eef3f8"/>
  <text x="639" y="434" fill="#25415f" font-family="Inter, Arial, sans-serif" font-size="14" font-weight="800">C</text>
  <text x="670" y="435" fill="#111827" font-family="Inter, Arial, sans-serif" font-size="16">Organized crime</text>
  <rect x="130" y="472" width="940" height="1" fill="#d9e0e8"/>
  <text x="130" y="492" fill="#087443" font-family="Inter, Arial, sans-serif" font-size="16" font-weight="800">Correct.</text>
  <text x="199" y="492" fill="#667085" font-family="Inter, Arial, sans-serif" font-size="16">Correct answer: C</text>
  <text x="600" y="574" text-anchor="middle" fill="#667085" font-family="Inter, Arial, sans-serif" font-size="15">Copyright 2026 Mario. All rights reserved.</text>
</svg>
